<svg width="91" height="81" viewBox="0 0 91 81" fill="none" xmlns="http://www.w3.org/2000/svg">
<path d="M91 70.0767L81.9711 60.0862V66.0805H73.7242C70.7383 69.149 67.0414 72.2176 62.918 74.073H81.9711V80.0673L91 70.0767Z" fill="#0006ef"/>
<path d="M78.5586 44.672C78.5586 28.4017 65.4063 15.2712 49.1969 15.2712C40.0258 15.2712 31.9211 19.4815 26.518 26.0468C24.6695 28.4017 23.1055 30.9707 22.0391 33.611C21.968 33.8251 21.8969 33.9678 21.8258 34.1819C21.6836 34.6101 21.5414 34.9669 21.3992 35.3951C20.4039 38.3209 19.9063 41.4607 19.9063 44.7433C19.9063 48.3828 20.6172 51.8795 21.8258 55.1621L16.3516 57.517L29.4328 62.7263L34.5516 49.5959L29.2906 51.8795C28.4375 49.5959 28.011 47.1696 28.011 44.7433C28.011 33.0401 37.5375 23.5491 49.1969 23.5491C60.8563 23.5491 70.3829 33.1115 70.3829 44.8147C70.3829 56.5179 60.8563 66.0803 49.1969 66.0803H0L3.83906 69.9338L0 74.0727H49.1969C65.3352 74.0727 78.5586 60.9423 78.5586 44.672Z" fill="#0006ef"/>
<path d="M19.4813 31.6848C19.6945 31.8275 19.9078 31.9702 20.05 32.1129C21.1164 29.6153 22.5383 27.2604 24.2445 25.0482C24.0313 24.9055 23.8891 24.7628 23.6758 24.62C22.3961 23.4069 21.543 21.6942 21.543 19.7675C21.543 16.1281 24.5289 13.1309 28.1547 13.1309C28.7234 13.1309 29.2922 13.2023 29.7899 13.345L27.2305 18.483L32.8469 16.5562L40.5961 13.9159L40.3828 13.345L36.0461 0.5L33.4156 5.85208C31.7094 5.20983 29.932 4.85302 28.1547 4.85302C19.9789 4.85302 13.3672 11.4896 13.3672 19.6961C13.4383 24.62 15.8555 28.9731 19.4813 31.6848Z" fill="#0006ef"/>
</svg>
